<mxfile host="app.diagrams.net" agent="Mozilla/5.0 (Windows NT 10.0; Win64; x64) AppleWebKit/537.36 (KHTML, like Gecko) Chrome/134.0.0.0 Safari/537.36" version="26.1.1">
  <diagram name="Sida-1" id="Yv2pyKI61eKC5X-Gz2bg">
    <mxGraphModel dx="1434" dy="772" grid="1" gridSize="10" guides="1" tooltips="1" connect="1" arrows="1" fold="1" page="1" pageScale="1" pageWidth="827" pageHeight="1169" math="0" shadow="0">
      <root>
        <mxCell id="0" />
        <mxCell id="1" parent="0" />
        <mxCell id="Kn0fIxGpVBJKITD7amtR-1" value="Rooms" style="swimlane;whiteSpace=wrap;html=1;" vertex="1" parent="1">
          <mxGeometry x="314" y="630" width="200" height="210" as="geometry" />
        </mxCell>
        <mxCell id="Kn0fIxGpVBJKITD7amtR-6" value="Id" style="text;html=1;align=center;verticalAlign=middle;whiteSpace=wrap;rounded=0;" vertex="1" parent="Kn0fIxGpVBJKITD7amtR-1">
          <mxGeometry y="30" width="200" height="30" as="geometry" />
        </mxCell>
        <mxCell id="Kn0fIxGpVBJKITD7amtR-7" value="Type" style="text;html=1;align=center;verticalAlign=middle;whiteSpace=wrap;rounded=0;" vertex="1" parent="Kn0fIxGpVBJKITD7amtR-1">
          <mxGeometry y="70" width="200" height="30" as="geometry" />
        </mxCell>
        <mxCell id="Kn0fIxGpVBJKITD7amtR-8" value="MaxGuests" style="text;html=1;align=center;verticalAlign=middle;whiteSpace=wrap;rounded=0;" vertex="1" parent="Kn0fIxGpVBJKITD7amtR-1">
          <mxGeometry y="110" width="200" height="30" as="geometry" />
        </mxCell>
        <mxCell id="Kn0fIxGpVBJKITD7amtR-9" value="PricePerNight" style="text;html=1;align=center;verticalAlign=middle;whiteSpace=wrap;rounded=0;" vertex="1" parent="Kn0fIxGpVBJKITD7amtR-1">
          <mxGeometry y="140" width="200" height="60" as="geometry" />
        </mxCell>
        <mxCell id="Kn0fIxGpVBJKITD7amtR-2" value="Customers" style="swimlane;whiteSpace=wrap;html=1;" vertex="1" parent="1">
          <mxGeometry x="314" y="10" width="200" height="170" as="geometry" />
        </mxCell>
        <mxCell id="Kn0fIxGpVBJKITD7amtR-19" value="Id" style="text;html=1;align=center;verticalAlign=middle;whiteSpace=wrap;rounded=0;" vertex="1" parent="Kn0fIxGpVBJKITD7amtR-2">
          <mxGeometry y="30" width="200" height="30" as="geometry" />
        </mxCell>
        <mxCell id="Kn0fIxGpVBJKITD7amtR-20" value="Name" style="text;html=1;align=center;verticalAlign=middle;whiteSpace=wrap;rounded=0;" vertex="1" parent="Kn0fIxGpVBJKITD7amtR-2">
          <mxGeometry y="60" width="200" height="30" as="geometry" />
        </mxCell>
        <mxCell id="Kn0fIxGpVBJKITD7amtR-21" value="Email" style="text;html=1;align=center;verticalAlign=middle;whiteSpace=wrap;rounded=0;" vertex="1" parent="Kn0fIxGpVBJKITD7amtR-2">
          <mxGeometry y="90" width="200" height="30" as="geometry" />
        </mxCell>
        <mxCell id="Kn0fIxGpVBJKITD7amtR-22" value="Phone" style="text;html=1;align=center;verticalAlign=middle;whiteSpace=wrap;rounded=0;" vertex="1" parent="Kn0fIxGpVBJKITD7amtR-2">
          <mxGeometry y="120" width="200" height="40" as="geometry" />
        </mxCell>
        <mxCell id="Kn0fIxGpVBJKITD7amtR-3" value="Bookings" style="swimlane;whiteSpace=wrap;html=1;" vertex="1" parent="1">
          <mxGeometry x="314" y="290" width="200" height="230" as="geometry" />
        </mxCell>
        <mxCell id="Kn0fIxGpVBJKITD7amtR-11" value="Id" style="text;html=1;align=center;verticalAlign=middle;whiteSpace=wrap;rounded=0;" vertex="1" parent="Kn0fIxGpVBJKITD7amtR-3">
          <mxGeometry y="30" width="200" height="30" as="geometry" />
        </mxCell>
        <mxCell id="Kn0fIxGpVBJKITD7amtR-12" value="RoomId" style="text;html=1;align=center;verticalAlign=middle;whiteSpace=wrap;rounded=0;" vertex="1" parent="Kn0fIxGpVBJKITD7amtR-3">
          <mxGeometry y="70" width="200" height="30" as="geometry" />
        </mxCell>
        <mxCell id="Kn0fIxGpVBJKITD7amtR-13" value="CustomerId " style="text;html=1;align=center;verticalAlign=middle;whiteSpace=wrap;rounded=0;" vertex="1" parent="Kn0fIxGpVBJKITD7amtR-3">
          <mxGeometry y="100" width="200" height="30" as="geometry" />
        </mxCell>
        <mxCell id="Kn0fIxGpVBJKITD7amtR-15" value="CheckInDate" style="text;html=1;align=center;verticalAlign=middle;whiteSpace=wrap;rounded=0;" vertex="1" parent="Kn0fIxGpVBJKITD7amtR-3">
          <mxGeometry y="130" width="200" height="30" as="geometry" />
        </mxCell>
        <mxCell id="Kn0fIxGpVBJKITD7amtR-17" value="CheckOutDate&amp;nbsp;" style="text;html=1;align=center;verticalAlign=middle;whiteSpace=wrap;rounded=0;" vertex="1" parent="Kn0fIxGpVBJKITD7amtR-3">
          <mxGeometry y="160" width="200" height="30" as="geometry" />
        </mxCell>
        <mxCell id="Kn0fIxGpVBJKITD7amtR-18" value="Paid" style="text;html=1;align=center;verticalAlign=middle;whiteSpace=wrap;rounded=0;" vertex="1" parent="Kn0fIxGpVBJKITD7amtR-3">
          <mxGeometry y="190" width="200" height="30" as="geometry" />
        </mxCell>
        <mxCell id="Kn0fIxGpVBJKITD7amtR-23" value="" style="endArrow=ERone;startArrow=ERoneToMany;html=1;rounded=0;entryX=0.5;entryY=1;entryDx=0;entryDy=0;endFill=0;startFill=0;" edge="1" parent="1" target="Kn0fIxGpVBJKITD7amtR-2">
          <mxGeometry width="50" height="50" relative="1" as="geometry">
            <mxPoint x="414" y="290" as="sourcePoint" />
            <mxPoint x="430" y="190" as="targetPoint" />
          </mxGeometry>
        </mxCell>
        <mxCell id="Kn0fIxGpVBJKITD7amtR-25" value="" style="endArrow=ERoneToMany;startArrow=ERone;html=1;rounded=0;exitX=0.5;exitY=0;exitDx=0;exitDy=0;endFill=0;startFill=0;" edge="1" parent="1" source="Kn0fIxGpVBJKITD7amtR-1">
          <mxGeometry width="50" height="50" relative="1" as="geometry">
            <mxPoint x="413" y="620" as="sourcePoint" />
            <mxPoint x="413" y="520" as="targetPoint" />
            <Array as="points" />
          </mxGeometry>
        </mxCell>
      </root>
    </mxGraphModel>
  </diagram>
</mxfile>
